<?xml version="1.0" standalone="no"?>
<!DOCTYPE svg PUBLIC "-//W3C//DTD SVG 20010904//EN"
 "http://www.w3.org/TR/2001/REC-SVG-20010904/DTD/svg10.dtd">
<svg version="1.0" xmlns="http://www.w3.org/2000/svg"
 width="1668.000000pt" height="1668.000000pt" viewBox="0 0 1668.000000 1668.000000"
 preserveAspectRatio="xMidYMid meet">

<g transform="translate(0.000000,1668.000000) scale(0.100000,-0.100000)"
fill="#000000" stroke="none">
<path d="M5455 11520 c-182 -38 -476 -275 -926 -745 -536 -562 -1159 -1367
-1599 -2068 l-105 -168 -110 -50 c-61 -27 -118 -59 -127 -70 -23 -27 -23 -88
0 -115 9 -12 32 -29 49 -38 l33 -16 -44 -89 c-257 -510 -472 -1178 -506 -1571
-25 -291 35 -498 187 -640 221 -208 605 -214 1096 -19 335 133 688 359 1053
670 l90 77 -4 -117 c-6 -178 29 -291 119 -383 90 -91 193 -124 358 -115 141 7
250 40 430 129 444 219 1127 787 1781 1483 62 66 106 109 98 95 -140 -234
-332 -571 -566 -996 -113 -205 -667 -1306 -836 -1661 -108 -228 -253 -553
-368 -828 -225 -535 -340 -884 -383 -1159 -24 -151 -17 -389 15 -496 55 -189
172 -332 340 -413 158 -77 222 -90 450 -91 217 -1 281 8 500 71 351 100 729
287 1045 516 305 222 624 545 899 912 335 445 653 959 1124 1815 13 25 67 126
119 225 53 99 100 185 107 192 6 6 58 40 116 76 58 35 242 153 410 262 392
256 487 313 645 390 248 122 374 137 595 70 169 -50 268 -65 440 -65 80 0 161
-5 181 -10 20 -6 65 -33 100 -62 35 -28 92 -64 127 -81 58 -27 70 -29 150 -25
78 4 95 8 162 43 92 49 203 156 381 370 68 82 154 181 191 220 l67 70 21 -50
c12 -27 50 -108 85 -180 98 -204 206 -307 350 -335 113 -22 240 21 312 105 81
94 293 454 293 498 0 35 -34 46 -65 21 -13 -11 -85 -68 -160 -129 -140 -113
-217 -165 -247 -165 -24 0 -84 55 -113 104 -13 22 -53 106 -88 186 -94 213
-141 281 -231 328 -43 22 -64 27 -131 27 -69 0 -88 -4 -140 -30 -85 -43 -226
-183 -438 -433 -98 -118 -197 -227 -220 -243 l-40 -29 -31 25 c-65 51 -133 93
-191 115 -53 20 -86 24 -275 31 -188 7 -227 11 -310 35 -243 68 -272 74 -387
74 -290 0 -545 -107 -1064 -446 -88 -58 -164 -104 -169 -102 -5 2 28 82 72
178 44 96 96 213 117 260 21 47 78 173 126 280 284 634 433 1038 480 1301 23
132 17 292 -14 371 -28 73 -91 137 -157 161 -175 62 -356 -44 -739 -435 -284
-288 -553 -620 -782 -963 -430 -645 -706 -1421 -632 -1777 18 -85 66 -173 125
-227 111 -101 245 -132 420 -95 42 8 78 14 79 12 7 -7 -324 -590 -490 -863
-726 -1195 -1252 -1729 -2029 -2060 -426 -181 -800 -219 -1000 -101 -151 88
-183 315 -95 671 77 312 301 883 612 1559 113 245 742 1514 835 1683 32 59 75
137 95 173 19 36 53 97 74 135 22 39 66 117 98 175 107 193 217 383 345 595
214 354 268 443 385 630 197 316 246 427 231 528 -9 61 -42 107 -96 135 -93
46 -149 23 -297 -125 -60 -59 -146 -155 -192 -213 -105 -131 -566 -606 -806
-830 -718 -669 -1419 -1148 -1809 -1235 -93 -21 -120 -16 -135 26 -60 171 137
620 458 1048 94 124 111 157 111 219 0 99 -60 163 -158 169 -86 6 -125 -23
-299 -217 -485 -542 -969 -966 -1393 -1221 -216 -129 -496 -246 -682 -283 -92
-19 -265 -21 -322 -4 -52 16 -108 72 -124 126 -69 231 -10 605 168 1052 145
366 426 943 498 1024 10 10 56 38 103 61 415 209 931 608 1357 1050 482 499
976 1193 1097 1541 20 58 28 106 32 180 5 94 4 106 -20 155 -29 64 -64 102
-115 128 -45 23 -123 32 -177 21z m-92 -497 c-26 -69 -181 -325 -296 -488
-155 -221 -349 -462 -546 -680 -105 -115 -407 -411 -535 -523 -152 -133 -374
-312 -387 -312 -27 0 501 694 765 1005 288 340 710 779 906 944 88 74 104 83
93 54z m5151 -2465 c-68 -294 -201 -632 -581 -1473 -310 -687 -432 -936 -472
-964 -50 -36 -249 -127 -339 -155 -97 -30 -153 -33 -173 -9 -35 41 0 278 73
503 37 115 57 167 133 349 163 393 509 912 913 1371 104 118 431 440 447 440
11 0 11 -11 -1 -62z"/>
<path d="M5405 8612 c-166 -104 -119 -369 70 -398 78 -11 160 42 191 123 31
81 -3 207 -71 259 -49 37 -144 45 -190 16z"/>
<path d="M14165 8035 c-119 -57 -147 -93 -147 -190 0 -82 33 -143 100 -186 43
-28 53 -30 119 -27 62 3 76 7 109 34 54 44 79 97 78 169 0 151 -138 257 -259
200z"/>
</g>
</svg>
